# xmcd
#
# Track frame offsets:
#	150
#	12298
#	23999
#	33166
#	51624
#	64676
#	79103
#	95044
#	110743
#	122261
#
# Disc length: 1846 seconds
#
# Revision: 1
# Processed by: cddbd v1.5.2PL0 Copyright (c) Steve Scherf et al.
# Submitted via: audiograbber 1.83.01
#
DISCID=7f07340a
DTITLE=Various Artist - Best Of Country [CD2]
DYEAR=2007
DGENRE=Country
TTITLE0=Fender, Freddy - Before The Next Teardrop Falls
TTITLE1=Fargo, Donna - The Happiest Girl In The Whole U.S.A.
TTITLE2=Paycheck, Johnny - Mr. Love Maker
TTITLE3=Newton, Juice - The Sweetest Thing
TTITLE4=Rogers, Kenny - Ruby Don't Take Your Love To Town
TTITLE5=Sheppard, T.G. - Do You Wanna Go To Heaven
TTITLE6=Tillis, Pam - Mi Vida Loca (Live)
TTITLE7=Stone, Doug - Juke Box And A Country Song
TTITLE8=Dunn, Holly - Are You Ever Gonna Love Me
TTITLE9=Exile - She's A Miracle
EXTD=
EXTT0=
EXTT1=
EXTT2=
EXTT3=
EXTT4=
EXTT5=
EXTT6=
EXTT7=
EXTT8=
EXTT9=
PLAYORDER=
